<?xml version="1.0" encoding="UTF-8"?>
<svg id="Layer_2" data-name="Layer 2" xmlns="http://www.w3.org/2000/svg" viewBox="0 0 69.72 69.72">
  <defs>
    <style>
      .cls-1 {
        fill: #07aa59;
      }

      .cls-2 {
        fill: #009852;
      }
    </style>
  </defs>
  <g id="Layer_1-2" data-name="Layer 1">
    <g>
      <g>
        <path class="cls-2" d="M35.28,24.43l-7.49-.06.17-22.01C27.97,1.05,29.04-.01,30.36,0l11.93.09-.14,17.57c-.03,3.76-3.1,6.79-6.87,6.76Z"/>
        <path class="cls-1" d="M34.74,24.43l-17.03.15c-1.59.01-3.8-.9-4.91-2.03l-7.2-7.31L14.1,6.86c.94-.92,2.44-.91,3.37.03l17.27,17.54Z"/>
      </g>
      <g>
        <path class="cls-2" d="M45.26,35.31l.12-7.49,22.01.34c1.32.02,2.36,1.1,2.34,2.42l-.18,11.93-17.57-.27c-3.76-.06-6.77-3.16-6.71-6.92Z"/>
        <path class="cls-1" d="M45.26,34.76v-17.03c-.01-1.59.92-3.79,2.06-4.9l7.36-7.14,8.3,8.56c.92.94.89,2.45-.05,3.37l-17.67,17.13Z"/>
      </g>
      <g>
        <path class="cls-2" d="M34.3,45.18l7.49.24-.69,22c-.04,1.31-1.14,2.35-2.46,2.31l-11.92-.38.55-17.57c.12-3.76,3.26-6.72,7.03-6.6Z"/>
        <path class="cls-1" d="M34.85,45.19l17.03.26c1.59.02,3.78.99,4.86,2.15l7.02,7.48-8.7,8.16c-.96.9-2.47.85-3.37-.11l-16.85-17.95Z"/>
      </g>
      <g>
        <path class="cls-2" d="M24.51,34.56l-.19,7.49-22-.57c-1.31-.03-2.35-1.13-2.32-2.44l.31-11.92,17.57.46c3.76.1,6.73,3.23,6.64,6.99Z"/>
        <path class="cls-1" d="M24.5,35.1l-.16,17.03c-.02,1.59-.97,3.78-2.12,4.88l-7.44,7.06-8.21-8.65c-.91-.95-.87-2.46.09-3.37l17.85-16.95Z"/>
      </g>
      <circle class="cls-2" cx="34.98" cy="34.93" r="7.2"/>
    </g>
  </g>
</svg>